<svg width="126" height="20" viewBox="0 0 126 20" fill="none" xmlns="http://www.w3.org/2000/svg">
<path d="M10.0807 0.636719C13.5443 0.636719 16.0912 2.6988 16.0912 5.4948C16.0912 7.7076 14.4995 9.43032 12.2997 9.69816C14.9906 9.94632 16.8823 11.8135 16.8823 14.3273C16.8823 17.287 14.2691 19.362 10.5439 19.362H0.972656V0.636719H10.0811H10.0807ZM13.3615 5.84808C13.3615 4.1916 12.0712 3.18984 9.93138 3.18984H3.7245V8.72232H9.95058C11.9867 8.72232 13.3615 7.5636 13.3615 5.84808ZM10.1522 16.8089C12.8301 16.8089 14.1525 15.8724 14.1525 13.9673C14.1525 12.0622 12.8431 11.1454 10.1584 11.1454H3.72162V16.8089H10.1522Z" fill="black"/>
<path d="M21.152 0.638672H18.5V19.3611H21.152V0.638672Z" fill="black"/>
<path d="M25.4191 3.25662H22.7656V0.640625H25.4191V3.25662ZM25.4191 19.363H22.7671V4.92606H25.4191V19.363Z" fill="black"/>
<path d="M33.446 19.7475C30.5718 19.7475 28.9998 17.9724 28.9998 14.5812V7.15035H27.0352V4.92459H28.9998V0.638672H31.6518V4.92459H36.4321V7.15035H31.6518V14.5875C31.6518 16.5003 32.3459 17.3902 33.8905 17.3902C34.4934 17.3902 35.3252 17.2524 36.4307 16.9577V19.2497C35.3171 19.5838 34.322 19.7475 33.4451 19.7475H33.4465H33.446Z" fill="black"/>
<path d="M41.0718 17.1342H50.3891V19.3666H38.0469V16.9834L46.8669 7.16217H38.0469V4.92969H49.8846V7.31289L41.0718 17.1342Z" fill="black"/>
<path d="M66.3882 6.27966H63.7036C63.7036 4.10574 61.7792 2.7315 58.99 2.7315C56.6461 2.7315 54.2034 3.70062 54.2034 5.85486C54.2034 7.7403 56.0759 8.0547 59.0485 8.50686L60.0176 8.65086C63.1933 9.12894 67.0688 9.73086 67.0688 13.9808C67.0688 17.8697 63.8284 19.7561 59.2381 19.7561C54.2096 19.7561 51.1914 17.4838 51.1914 13.5493H53.876C53.876 15.8801 55.9314 17.2678 59.1992 17.2678C62.0087 17.2678 64.3784 16.2464 64.3784 13.9285C64.3784 11.8534 62.4656 11.5453 59.8007 11.1387L58.5834 10.9558C55.3756 10.471 51.5188 9.90846 51.5188 5.91438C51.5188 2.16174 54.9234 0.244141 59.0092 0.244141C63.4813 0.244141 66.3882 2.54238 66.3882 6.28062V6.27918V6.27966Z" fill="black"/>
<path d="M75.7517 17.3578C78.1416 17.3578 79.4121 15.8261 79.7654 13.9195H82.4174C81.9849 17.2003 79.6147 19.7535 75.7459 19.7535C71.5157 19.7535 68.6875 16.7026 68.6875 12.1383C68.6875 7.57394 71.5161 4.5293 75.7459 4.5293C79.6214 4.5293 81.9912 7.08242 82.4174 10.3632H79.7654C79.4184 8.45858 78.1478 6.92642 75.7517 6.92642C73.0219 6.92642 71.339 8.91026 71.339 12.1378C71.339 15.3653 73.0219 17.3559 75.7517 17.3559V17.3573V17.3578Z" fill="black"/>
<path d="M91.0306 4.53173C95.3064 4.53173 97.886 6.87557 97.886 10.7981V19.3618H95.234V15.4796C94.5337 18.1378 92.3343 19.7554 89.2887 19.7554C86.2431 19.7554 84.0312 18.014 84.0312 15.4013C84.0312 12.7887 86.1792 11.1317 89.6626 11.1317H95.234V10.7976C95.234 8.42117 93.5972 6.93509 90.984 6.93509C88.3709 6.93509 87.108 8.13317 87.108 9.95333H84.456C84.456 6.63365 86.9832 4.53269 91.0292 4.53269L91.0306 4.53125V4.53173ZM89.6362 13.358C87.6845 13.358 86.6511 14.0324 86.6511 15.3159C86.6511 16.6844 87.842 17.4442 90.0034 17.4442C93.0668 17.4442 95.2345 15.9188 95.2345 13.7578V13.3589H89.6352L89.6367 13.3575L89.6362 13.358Z" fill="black"/>
<path d="M102.156 0.638672H99.5039V19.3611H102.156V0.638672Z" fill="black"/>
<path d="M117.494 14.5743C116.747 17.8085 114.246 19.7535 110.868 19.7535C106.619 19.7535 103.77 16.6896 103.77 12.1186C103.77 7.54754 106.585 4.5293 110.782 4.5293C114.979 4.5293 117.559 7.47602 117.559 12.0783C117.559 12.4119 117.546 12.72 117.514 13.1059H106.475C106.783 15.7512 108.433 17.3559 110.934 17.3559C112.845 17.3559 114.136 16.4127 114.842 14.5728H117.494V14.5738V14.5743ZM114.816 10.8168C114.463 8.3093 113.048 6.92786 110.797 6.92786C108.546 6.92786 106.927 8.3885 106.527 10.8168H114.817H114.816Z" fill="black"/>
<path d="M122.606 16.6039C122.692 16.5679 122.775 16.5213 122.854 16.4661C122.961 16.3913 123.047 16.2919 123.113 16.1705C123.178 16.0476 123.212 15.8954 123.212 15.7193C123.212 15.5033 123.166 15.3218 123.076 15.1797C122.984 15.0357 122.845 14.9277 122.662 14.8586C122.485 14.7919 122.26 14.7578 121.995 14.7578H121.07V18.0573H121.581V16.7412H122.123L122.896 18.0573H123.493L122.606 16.6044V16.6039ZM122.688 15.7365C122.688 15.9204 122.637 16.0543 122.531 16.146C122.423 16.2391 122.248 16.2861 122.009 16.2861H121.581V15.2191H121.973C122.224 15.2191 122.41 15.2599 122.526 15.3396C122.635 15.4164 122.688 15.546 122.688 15.7365Z" fill="black"/>
<path d="M122.075 19.361C120.446 19.361 119.121 18.0352 119.121 16.407C119.121 14.7789 120.447 13.4531 122.075 13.4531C123.703 13.4531 125.029 14.7784 125.029 16.407C125.029 18.0357 123.704 19.361 122.075 19.361ZM122.075 14.0056C120.751 14.0056 119.674 15.0832 119.674 16.407C119.674 17.7309 120.751 18.8085 122.075 18.8085C123.399 18.8085 124.476 17.7309 124.476 16.407C124.476 15.0832 123.399 14.0056 122.075 14.0056Z" fill="black"/>
</svg>
