<svg width="300" height="68" viewBox="0 0 300 68" fill="none" xmlns="http://www.w3.org/2000/svg">
<path d="M94.3429 34.0469C100.54 34.0469 105.096 37.7081 105.096 42.6734C105.096 46.6019 102.249 49.6618 98.3127 50.1376C103.126 50.5777 106.512 53.8933 106.512 58.3575C106.512 63.6131 101.837 67.2985 95.1728 67.2985H78.0469V34.0469H94.3429ZM100.213 43.3013C100.213 40.3601 97.9041 38.5813 94.0759 38.5813H82.9708V48.4049H94.1107C97.7532 48.4049 100.213 46.3473 100.213 43.3013ZM94.4706 62.7652C99.2622 62.7652 101.628 61.1016 101.628 57.7192C101.628 54.3368 99.2843 52.7078 94.4822 52.7078H82.9662V62.7652H94.4706Z" fill="black"/>
<path d="M114.151 34.0547H109.406V67.3006H114.151V34.0547Z" fill="black"/>
<path d="M121.785 38.6998H117.039V34.0547H121.785V38.6998ZM121.785 67.2994H117.04V41.664H121.785V67.2994Z" fill="black"/>
<path d="M136.149 67.986C131.007 67.986 128.194 64.834 128.194 58.8123V45.6178H124.68V41.6651H128.194V34.0547H132.939V41.6651H141.491V45.6178H132.939V58.8238C132.939 62.22 134.179 63.8006 136.944 63.8006C138.023 63.8006 139.511 63.5564 141.489 63.0322V67.1024C139.497 67.6957 137.716 67.986 136.147 67.986H136.149Z" fill="black"/>
<path d="M149.79 63.3431H166.461V67.3073H144.379V63.0758L160.158 45.6349H144.379V41.6719H165.558V45.9034L149.79 63.3431Z" fill="black"/>
<path d="M195.088 44.0679H190.285C190.285 40.2086 186.842 37.7674 181.851 37.7674C177.657 37.7674 173.287 39.4885 173.287 43.3133C173.287 46.6612 176.637 47.2199 181.955 48.0229L183.689 48.2787C189.371 49.1277 196.306 50.1957 196.306 57.7428C196.306 64.6482 190.508 67.9983 182.295 67.9983C173.299 67.9983 167.898 63.9639 167.898 56.9767H172.702C172.702 61.116 176.379 63.5802 182.226 63.5802C187.252 63.5802 191.492 61.7669 191.492 57.6506C191.492 53.9664 188.07 53.4191 183.302 52.6968L181.123 52.3719C175.383 51.5113 168.483 50.5125 168.483 43.4205C168.483 36.757 174.574 33.3516 181.886 33.3516C189.887 33.3516 195.087 37.4333 195.087 44.0714V44.0691L195.088 44.0679Z" fill="black"/>
<path d="M211.835 63.7404C216.111 63.7404 218.384 61.0204 219.015 57.6357H223.761C222.986 63.4616 218.746 67.995 211.824 67.995C204.256 67.995 199.195 62.578 199.195 54.4722C199.195 46.3664 204.256 40.9609 211.824 40.9609C218.758 40.9609 222.998 45.4943 223.761 51.3202H219.015C218.394 47.9378 216.122 45.2178 211.835 45.2178C206.95 45.2178 203.941 48.7407 203.941 54.4722C203.941 60.2036 206.952 63.7381 211.835 63.7381V63.7404Z" fill="black"/>
<path d="M239.176 40.9648C246.825 40.9648 251.44 45.1272 251.44 52.0925V67.2996H246.695V60.4057C245.442 65.1257 241.508 67.9989 236.058 67.9989C230.608 67.9989 226.652 64.9068 226.652 60.2675C226.652 55.6281 230.496 52.6858 236.728 52.6858H246.696V52.0925C246.696 47.8725 243.768 45.2332 239.092 45.2332C234.417 45.2332 232.158 47.3599 232.158 50.5925H227.414C227.414 44.6975 231.935 40.9671 239.174 40.9671L239.176 40.9648ZM236.681 56.6373C233.19 56.6373 231.341 57.8343 231.341 60.1142C231.341 62.5439 233.472 63.8941 237.338 63.8941C242.819 63.8941 246.698 61.1856 246.698 57.3482V56.6396H236.68L236.683 56.6373H236.681Z" fill="black"/>
<path d="M259.077 34.0547H254.332V67.3006H259.077V34.0547Z" fill="black"/>
<path d="M286.525 58.7981C285.189 64.5411 280.713 67.995 274.669 67.995C267.068 67.995 261.969 62.555 261.969 54.4376C261.969 46.3203 267.006 40.9609 274.515 40.9609C282.024 40.9609 286.641 46.1936 286.641 54.3662C286.641 54.9584 286.618 55.5056 286.561 56.1911H266.81C267.362 60.8891 270.313 63.7381 274.788 63.7381C278.208 63.7381 280.517 62.0631 281.781 58.7958H286.525V58.7981ZM281.733 52.1255C281.101 47.6728 278.569 45.2201 274.541 45.2201C270.513 45.2201 267.618 47.8133 266.902 52.1255H281.733Z" fill="black"/>
<path d="M295.647 62.397C295.806 62.3325 295.958 62.2484 296.101 62.1482C296.29 62.0157 296.446 61.8417 296.562 61.6275C296.678 61.4109 296.737 61.1436 296.737 60.8325C296.737 60.4512 296.656 60.1321 296.494 59.8809C296.332 59.6275 296.086 59.4374 295.762 59.3153C295.446 59.1966 295.046 59.1367 294.572 59.1367H292.93V64.9696H293.818V62.632H294.809L296.19 64.9696H297.229L295.647 62.3959V62.397ZM293.819 59.9316H294.534C294.985 59.9316 295.322 60.0042 295.531 60.1471C295.729 60.2853 295.827 60.5192 295.827 60.8625C295.827 61.2058 295.733 61.4339 295.54 61.5998C295.345 61.7669 295.028 61.8521 294.599 61.8521H293.82V59.9328L293.819 59.9316Z" fill="black"/>
<path d="M294.715 67.2992C291.8 67.2992 289.43 64.9455 289.43 62.0539C289.43 59.1622 291.802 56.8086 294.715 56.8086C297.627 56.8086 300 59.1622 300 62.0539C300 64.9455 297.628 67.2992 294.715 67.2992ZM294.715 57.7901C292.346 57.7901 290.418 59.7037 290.418 62.055C290.418 64.4064 292.346 66.3188 294.715 66.3188C297.084 66.3188 299.012 64.4052 299.012 62.055C299.012 59.7049 297.084 57.7901 294.715 57.7901Z" fill="black"/>
<path d="M55.9533 27.9828C56.1843 27.9828 56.3747 28.0116 56.5256 28.0669C56.6753 28.1233 56.7879 28.2097 56.8633 28.3249C56.9376 28.4413 56.9748 28.5888 56.9748 28.7673C56.9748 28.9148 56.9481 29.0381 56.8947 29.136C56.8413 29.2351 56.7705 29.3145 56.6834 29.3756C56.5964 29.4367 56.5035 29.4839 56.4048 29.5173L57.1756 30.7707H56.7949L56.1065 29.6072H55.5215V30.7707H55.1953V27.9805H55.9545L55.9533 27.9828ZM55.9336 28.2639H55.5203V29.3353H55.9661C56.1959 29.3353 56.3642 29.288 56.4733 29.1959C56.5813 29.1026 56.6358 28.9666 56.6358 28.7858C56.6358 28.5957 56.5778 28.462 56.464 28.3825C56.3491 28.3042 56.1727 28.265 55.9347 28.265L55.9336 28.2639Z" fill="black"/>
<path d="M57.3014 30.8426H56.7547L56.0664 29.679H55.5928V30.8426H55.125V27.9141H55.955C56.1929 27.9141 56.3937 27.944 56.5516 28.0028C56.7164 28.065 56.8418 28.1606 56.923 28.2896C57.0043 28.4164 57.0461 28.5776 57.0461 28.77C57.0461 28.929 57.0159 29.0638 56.9567 29.1721C56.8986 29.2792 56.8197 29.3679 56.7245 29.4359C56.656 29.4832 56.5852 29.5235 56.5086 29.5557L57.3014 30.8437V30.8426ZM56.836 30.7032H57.0507L56.2985 29.482L56.3821 29.4544C56.4738 29.4232 56.562 29.3783 56.6433 29.3219C56.7211 29.2677 56.7849 29.1951 56.8336 29.1064C56.8812 29.0189 56.9056 28.906 56.9056 28.77C56.9056 28.6053 56.8719 28.4682 56.8046 28.3657C56.7396 28.2631 56.6375 28.1859 56.5017 28.1353C56.3601 28.0823 56.1755 28.0546 55.955 28.0546H55.2666V30.7055H55.4523V29.5419H56.1476L56.836 30.7055V30.7032ZM55.9689 29.4037H55.4523V28.194H55.9364C56.1917 28.194 56.3775 28.2366 56.5063 28.3242C56.641 28.4164 56.7083 28.5707 56.7083 28.7839C56.7083 28.9843 56.6456 29.141 56.5214 29.247C56.4007 29.3507 56.215 29.4037 55.9689 29.4037ZM55.5939 29.2643H55.97C56.1813 29.2643 56.3357 29.2228 56.4297 29.1421C56.5226 29.0615 56.5678 28.9451 56.5678 28.785C56.5678 28.6249 56.5214 28.5051 56.4262 28.4394C56.3241 28.3691 56.1592 28.3334 55.9364 28.3334H55.5928V29.2643H55.5939Z" fill="black"/>
<path d="M56.0272 31.989C54.5762 31.989 53.3945 30.8174 53.3945 29.3785C53.3945 27.9384 54.5739 26.7656 56.0248 26.7656C57.4758 26.7656 58.6574 27.9373 58.6574 29.3762C58.6574 30.8162 57.477 31.989 56.0272 31.989ZM56.0248 27.2541C54.8455 27.2541 53.8855 28.208 53.8867 29.3785C53.8867 30.549 54.8478 31.5017 56.0272 31.5006C57.2065 31.5006 58.1664 30.5467 58.1664 29.3762C58.1664 28.2057 57.2053 27.2529 56.026 27.2541" fill="black"/>
<path d="M0.00232026 35.4345V67.124C0.00115949 67.6044 0.391177 67.9949 0.875217 67.9984H36.4121C36.6361 67.9995 36.8532 67.9154 37.0168 67.7645L47.35 57.585C47.7005 57.2601 48.2496 57.2751 48.5815 57.6184L57.1457 66.0157C57.6843 66.5722 58.6326 66.2104 58.6558 65.4385V35.0693C58.6698 34.5832 58.2809 34.1788 57.7899 34.1719L27.4869 34.1788C26.7081 34.1684 26.3018 35.0958 26.8404 35.6534L35.4312 44.4896C35.769 44.8399 35.7551 45.3952 35.3987 45.7281L29.9048 51.1485C29.7411 51.3017 29.5252 51.3858 29.3001 51.3847L17.9048 51.3927C17.4196 51.3916 17.0284 50.9999 17.0296 50.5183L17.0842 35.4426C17.0865 34.7444 16.5165 34.1776 15.8131 34.1788H1.26756C0.568775 34.1788 0.00232153 34.741 0 35.4345" fill="black"/>
<path d="M0.00390625 1.5714V26.1239C0.00390625 26.9914 0.711974 27.6942 1.58603 27.6942H15.4026C16.2755 27.6942 16.9848 26.9914 16.9848 26.1239V11.63C16.9848 10.9341 17.5524 10.3696 18.2546 10.3696L28.6435 10.3857C28.9116 10.3857 29.167 10.4975 29.3481 10.6933L38.445 19.6068C38.6249 19.8014 38.878 19.912 39.1438 19.912L45.6499 19.8418C46.351 19.8418 46.9198 19.2773 46.9198 18.5814V11.3846C46.9198 11.1426 46.8188 10.9111 46.64 10.7463L36.1374 0.233866C35.9749 0.0840996 35.7613 0 35.5396 0H1.58603C0.713135 0 0.00390625 0.702752 0.00390625 1.57025" fill="black"/>
</svg>
