<svg width="1170" height="182" viewBox="0 0 1170 182" fill="none" xmlns="http://www.w3.org/2000/svg">
<rect width="1170" height="182" fill="#EFEFEF"/>
<path d="M85.9002 3.65234C118.567 3.65234 142.588 22.8843 142.588 48.9611C142.588 69.5988 127.576 85.6657 106.829 88.1637C132.207 90.4782 150.048 107.893 150.048 131.337C150.048 158.941 125.403 178.293 90.2688 178.293H0V3.65234H85.9047H85.9002ZM116.842 52.256C116.842 36.8069 104.674 27.464 84.4923 27.464H25.9534V79.0625H84.6734C103.877 79.0625 116.842 68.2558 116.842 52.256ZM86.5747 154.482C111.831 154.482 124.303 145.748 124.303 127.98C124.303 110.212 111.953 101.661 86.6336 101.661H25.9262V154.482H86.5747Z" fill="black"/>
<path d="M190.309 3.67969H165.297V178.294H190.309V3.67969Z" fill="black"/>
<path d="M230.561 28.0856H205.535V3.6875H230.561V28.0856ZM230.561 178.302H205.549V43.6556H230.561V178.302Z" fill="black"/>
<path d="M306.268 181.898C279.16 181.898 264.334 165.343 264.334 133.715V64.4108H245.805V43.6522H264.334V3.67969H289.346V43.6522H334.43V64.4108H289.346V133.773C289.346 151.613 295.892 159.912 310.46 159.912C316.146 159.912 323.991 158.628 334.417 155.879V177.255C323.914 180.371 314.529 181.898 306.259 181.898H306.272H306.268Z" fill="black"/>
<path d="M378.197 157.528H466.071V178.349H349.668V156.122L432.852 64.5243H349.668V43.7031H461.313V65.93L378.197 157.528Z" fill="black"/>
<path d="M616.962 56.2902H591.643C591.643 36.0151 573.494 23.1983 547.187 23.1983C525.082 23.1983 502.044 32.2368 502.044 52.3283C502.044 69.9128 519.704 72.8451 547.739 77.0621L556.88 78.4051C586.83 82.8639 623.381 88.4777 623.381 128.115C623.381 164.385 592.82 181.978 549.528 181.978C502.103 181.978 473.637 160.786 473.637 124.09H498.956C498.956 145.829 518.341 158.771 549.161 158.771C575.658 158.771 598.008 149.245 598.008 127.627C598.008 108.274 579.967 105.4 554.833 101.608L543.353 99.9023C513.099 95.3808 476.724 90.1341 476.724 52.8834C476.724 17.8845 508.834 0 547.368 0C589.547 0 616.962 21.4345 616.962 56.2991V56.2857V56.2902Z" fill="black"/>
<path d="M705.261 159.613C727.801 159.613 739.784 145.328 743.116 127.547H768.128C764.049 158.145 741.694 181.957 705.207 181.957C665.31 181.957 638.637 153.503 638.637 110.934C638.637 68.3645 665.314 39.9688 705.207 39.9688C741.758 39.9688 764.108 63.7804 768.128 94.3787H743.116C739.843 76.6151 727.86 62.3254 705.261 62.3254C679.516 62.3254 663.644 80.8277 663.644 110.929C663.644 141.03 679.516 159.595 705.261 159.595V159.609V159.613Z" fill="black"/>
<path d="M849.38 39.9849C889.707 39.9849 914.035 61.8447 914.035 98.4284V178.297H889.023V142.09C882.418 166.882 861.676 181.968 832.952 181.968C804.228 181.968 783.367 165.727 783.367 141.36C783.367 116.993 803.626 101.54 836.478 101.54H889.023V98.4239C889.023 76.2597 873.586 62.3998 848.941 62.3998C824.296 62.3998 812.385 73.5737 812.385 90.5494H787.374C787.374 59.5885 811.208 39.9939 849.367 39.9939L849.38 39.9805V39.9849ZM836.229 122.303C817.822 122.303 808.076 128.592 808.076 140.563C808.076 153.326 819.307 160.413 839.692 160.413C868.584 160.413 889.028 146.186 889.028 126.032V122.312H836.22L836.234 122.298L836.229 122.303Z" fill="black"/>
<path d="M954.277 3.67969H929.266V178.294H954.277V3.67969Z" fill="black"/>
<path d="M1098.96 133.653C1091.92 163.817 1068.33 181.957 1036.47 181.957C996.4 181.957 969.523 153.382 969.523 110.75C969.523 68.1183 996.079 39.9688 1035.66 39.9688C1075.25 39.9688 1099.58 67.4513 1099.58 110.374C1099.58 113.485 1099.46 116.359 1099.15 119.959H995.038C997.944 144.63 1013.5 159.595 1037.09 159.595C1055.12 159.595 1067.29 150.799 1073.95 133.639H1098.96V133.648V133.653ZM1073.71 98.6092C1070.38 75.2229 1057.03 62.3389 1035.8 62.3389C1014.57 62.3389 999.307 75.9615 995.531 98.6092H1073.71H1073.71Z" fill="black"/>
<path d="M1147.15 152.585C1147.96 152.249 1148.75 151.815 1149.49 151.3C1150.5 150.601 1151.31 149.675 1151.93 148.542C1152.55 147.396 1152.87 145.977 1152.87 144.334C1152.87 142.32 1152.43 140.627 1151.58 139.302C1150.72 137.959 1149.41 136.952 1147.68 136.307C1146.01 135.685 1143.89 135.367 1141.39 135.367H1132.67V166.14H1137.48V153.865H1142.6L1149.88 166.14H1155.52L1147.15 152.589V152.585ZM1147.93 144.495C1147.93 146.21 1147.44 147.459 1146.44 148.314C1145.43 149.182 1143.77 149.621 1141.52 149.621H1137.48V139.669H1141.18C1143.55 139.669 1145.31 140.05 1146.4 140.793C1147.43 141.509 1147.93 142.718 1147.93 144.495Z" fill="black"/>
<path d="M1142.14 178.302C1126.78 178.302 1114.29 165.938 1114.29 150.753C1114.29 135.568 1126.79 123.203 1142.14 123.203C1157.5 123.203 1170 135.563 1170 150.753C1170 165.942 1157.5 178.302 1142.14 178.302ZM1142.14 128.356C1129.66 128.356 1119.5 138.406 1119.5 150.753C1119.5 163.1 1129.66 173.15 1142.14 173.15C1154.63 173.15 1164.79 163.1 1164.79 150.753C1164.79 138.406 1154.63 128.356 1142.14 128.356Z" fill="black"/>
</svg>
