<svg width="21" height="24" viewBox="0 0 21 24" fill="none" xmlns="http://www.w3.org/2000/svg">
<path d="M19.6253 11.2908C19.1171 11.2908 18.7031 10.8773 18.7031 10.3695C18.7031 9.86119 19.1162 9.44727 19.6245 9.44727C20.1328 9.44727 20.5467 9.86079 20.5467 10.3686C20.5467 10.8769 20.1332 11.2908 19.6253 11.2908ZM19.6245 9.61967C19.2114 9.61967 18.8751 9.95634 18.8755 10.3695C18.8755 10.7826 19.2122 11.1188 19.6253 11.1184C20.0384 11.1184 20.3747 10.7818 20.3747 10.3686C20.3747 9.95552 20.038 9.61926 19.6249 9.61967" fill="white"/>
<path d="M19.5995 9.87581C19.6804 9.87581 19.7471 9.88598 19.8 9.9055C19.8524 9.92542 19.8918 9.95591 19.9183 9.99658C19.9443 10.0376 19.9573 10.0897 19.9573 10.1527C19.9573 10.2048 19.948 10.2483 19.9293 10.2828C19.9106 10.3178 19.8858 10.3459 19.8553 10.3674C19.8248 10.389 19.7922 10.4056 19.7577 10.4174L20.0277 10.8598H19.8943L19.6532 10.4491H19.4482V10.8598H19.334V9.875H19.5999L19.5995 9.87581ZM19.5926 9.97503H19.4478V10.3532H19.604C19.6845 10.3532 19.7434 10.3365 19.7817 10.304C19.8195 10.271 19.8386 10.2231 19.8386 10.1592C19.8386 10.0921 19.8183 10.045 19.7784 10.0169C19.7382 9.98926 19.6763 9.97543 19.593 9.97543L19.5926 9.97503Z" fill="white"/>
<path d="M0.000812768 12.5062V23.6907C0.000406161 23.8603 0.137026 23.9981 0.306582 23.9993H12.7549C12.8333 23.9998 12.9094 23.9701 12.9667 23.9168L16.5863 20.324C16.7091 20.2094 16.9014 20.2147 17.0177 20.3358L20.0177 23.2996C20.2063 23.496 20.5385 23.3683 20.5467 23.0959V12.3773C20.5516 12.2057 20.4153 12.063 20.2433 12.0605L9.62846 12.063C9.35563 12.0593 9.21331 12.3866 9.40198 12.5834L12.4113 15.7021C12.5296 15.8257 12.5247 16.0217 12.3999 16.1392L10.4754 18.0523C10.4181 18.1064 10.3425 18.1361 10.2636 18.1357L6.27192 18.1385C6.10195 18.1381 5.96493 17.9999 5.96534 17.8299L5.98445 12.509C5.98526 12.2626 5.78561 12.0626 5.53921 12.063H0.444015C0.199237 12.063 0.000813215 12.2614 0 12.5062" fill="white"/>
<path d="M0 0.554612V9.22023C0 9.5264 0.248031 9.77443 0.554206 9.77443H5.39405C5.69982 9.77443 5.94826 9.5264 5.94826 9.22023V4.1047C5.94826 3.85911 6.14709 3.65987 6.39309 3.65987L10.0322 3.66556C10.1261 3.66556 10.2156 3.70501 10.279 3.77413L13.4656 6.92005C13.5286 6.98877 13.6173 7.0278 13.7104 7.0278L15.9894 7.003C16.235 7.003 16.4343 6.80376 16.4343 6.55817V4.01809C16.4343 3.93271 16.3989 3.85098 16.3363 3.79283L12.6573 0.0825412C12.6004 0.0296823 12.5255 0 12.4479 0H0.554206C0.248437 0 0 0.248031 0 0.554206" fill="white"/>
<path d="M20.071 10.8852H19.8795L19.6384 10.4745H19.4725V10.8852H19.3086V9.85156H19.5993C19.6827 9.85156 19.753 9.86213 19.8083 9.88287C19.8661 9.90483 19.91 9.93858 19.9384 9.98412C19.9669 10.0288 19.9815 10.0858 19.9815 10.1537C19.9815 10.2098 19.971 10.2574 19.9502 10.2956C19.9299 10.3334 19.9022 10.3647 19.8689 10.3887C19.8449 10.4054 19.8201 10.4196 19.7933 10.431L20.071 10.8856V10.8852ZM19.9079 10.836H19.9832L19.7197 10.405L19.749 10.3952C19.7811 10.3842 19.812 10.3684 19.8404 10.3484C19.8677 10.3293 19.89 10.3037 19.9071 10.2724C19.9238 10.2415 19.9323 10.2017 19.9323 10.1537C19.9323 10.0955 19.9205 10.0471 19.897 10.011C19.8742 9.97476 19.8384 9.94752 19.7908 9.92963C19.7412 9.91093 19.6766 9.90117 19.5993 9.90117H19.3582V10.8368H19.4233V10.4261H19.6668L19.9079 10.8368V10.836ZM19.6042 10.3773H19.4233V9.95037H19.5928C19.6823 9.95037 19.7473 9.96541 19.7925 9.99631C19.8396 10.0288 19.8632 10.0833 19.8632 10.1586C19.8632 10.2293 19.8412 10.2846 19.7977 10.322C19.7555 10.3586 19.6904 10.3773 19.6042 10.3773ZM19.4729 10.3281H19.6046C19.6786 10.3281 19.7327 10.3135 19.7656 10.285C19.7981 10.2565 19.814 10.2155 19.814 10.159C19.814 10.1024 19.7977 10.0602 19.7644 10.037C19.7286 10.0122 19.6709 9.99957 19.5928 9.99957H19.4725V10.3281H19.4729Z" fill="white"/>
</svg>
