<svg width="24" height="24" viewBox="0 0 24 24" fill="none" xmlns="http://www.w3.org/2000/svg">
<path d="M19.1995 6L4.79911 6C4.65331 6.00046 4.5104 6.04074 4.38576 6.11651C4.26111 6.19228 4.15946 6.30067 4.09173 6.43001C4.02401 6.55935 3.99278 6.70475 4.0014 6.85054C4.01003 6.99634 4.05819 7.13702 4.14069 7.25744L11.3409 17.676C11.6393 18.108 12.3577 18.108 12.6569 17.676L19.8571 7.25744C19.9405 7.13728 19.9894 6.99652 19.9984 6.85048C20.0075 6.70444 19.9765 6.5587 19.9087 6.42908C19.8409 6.29947 19.739 6.19094 19.614 6.11529C19.4889 6.03965 19.3456 5.99977 19.1995 6Z" fill="#4C565F"/>
</svg>
