<svg width="24" height="25" viewBox="0 0 24 25" fill="none" xmlns="http://www.w3.org/2000/svg">
<path d="M6 5.30048L6 19.7009C6.00046 19.8467 6.04074 19.9896 6.11651 20.1142C6.19228 20.2389 6.30067 20.3405 6.43001 20.4083C6.55935 20.476 6.70475 20.5072 6.85055 20.4986C6.99634 20.49 7.13702 20.4418 7.25744 20.3593L17.676 13.1591C18.108 12.8607 18.108 12.1423 17.676 11.8431L7.25744 4.64286C7.13728 4.55952 6.99652 4.51065 6.85048 4.50155C6.70444 4.49246 6.5587 4.52349 6.42908 4.59127C6.29947 4.65906 6.19094 4.76101 6.11529 4.88604C6.03965 5.01107 5.99977 5.15441 6 5.30048Z" fill="#4C565F"/>
</svg>
