<svg width="100" height="100" viewBox="0 0 100 100" fill="none" xmlns="http://www.w3.org/2000/svg">
<path d="M4 71.3928H29.3469C32.1633 71.3928 34.4163 69.1508 34.4163 66.3482C34.4163 63.5457 32.1633 61.3036 29.3469 61.3036H4C4.93878 48.5987 15.6408 38.6964 28.5959 38.6964H29.5347C32.351 38.6964 34.6041 36.4544 34.6041 33.6518C34.6041 30.8493 32.351 28.6072 29.5347 28.6072H28.5959C15.6408 28.6072 4.93878 18.7049 4 6H71.4041C84.3592 6 95.0612 15.9023 96 28.6072H70.6531C67.8367 28.6072 65.5837 30.8493 65.5837 33.6518C65.5837 36.4544 67.8367 38.6964 70.6531 38.6964H96C95.0612 51.4013 84.3592 61.3036 71.4041 61.3036H70.4653C67.649 61.3036 65.3959 63.5457 65.3959 66.3482C65.3959 69.1508 67.649 71.3928 70.4653 71.3928H71.4041C84.3592 71.3928 95.0612 81.2951 96 94H28.5959C15.6408 94 4.93878 84.0977 4 71.3928Z" fill="#B6B6B6"/>
</svg>
