<svg width="160" height="160" viewBox="0 0 160 160" fill="none" xmlns="http://www.w3.org/2000/svg">
<path d="M37.8477 99.6125H61.0735C63.6541 99.6125 65.7186 97.548 65.7186 94.9673C65.7186 92.3867 63.6541 90.3222 61.0735 90.3222H37.8477C38.7079 78.6232 48.5143 69.505 60.3853 69.505H61.2455C63.8262 69.505 65.8907 67.4404 65.8907 64.8598C65.8907 62.2792 63.8262 60.2146 61.2455 60.2146H60.3853C48.5143 60.2146 38.7079 51.0964 37.8477 39.3974H99.6111C111.482 39.3974 121.289 48.5157 122.149 60.2146H98.9229C96.3423 60.2146 94.2778 62.2792 94.2778 64.8598C94.2778 67.4404 96.3423 69.505 98.9229 69.505H122.149C121.289 81.2039 111.482 90.3222 99.6111 90.3222H98.7509C96.1702 90.3222 94.1057 92.3867 94.1057 94.9673C94.1057 97.548 96.1702 99.6125 98.7509 99.6125H99.6111C111.482 99.6125 121.289 108.731 122.149 120.43H60.3853C48.5143 120.43 38.7079 111.311 37.8477 99.6125Z" fill="#B6B6B6"/>
</svg>
