<svg width="160" height="160" viewBox="0 0 160 160" fill="none" xmlns="http://www.w3.org/2000/svg">
<path d="M117.616 59.2781H118.708V64.0185C118.708 68.6234 114.885 72.4156 110.243 72.4156C106.556 72.4156 103.279 75.1244 102.733 78.6458C102.323 80.8128 103.006 82.9798 104.372 84.7405C105.737 86.3658 107.922 87.3138 110.106 87.3138C114.885 87.3138 118.708 91.1061 118.708 95.8464V100.587H117.616C110.379 100.587 104.098 105.192 101.777 111.828H87.4403V96.2527C87.4403 92.5959 84.7094 89.3454 81.1593 88.8036C80.6132 88.6682 80.067 88.6682 79.6574 88.6682C75.6977 88.9391 72.5572 92.1896 72.5572 96.1173V111.828H58.2203C55.8991 105.192 49.6181 100.587 42.3814 100.587H41.2891V95.8464C41.2891 91.2415 45.1122 87.4493 49.7547 87.4493C53.4413 87.4493 56.7183 84.7405 57.2645 81.2191C57.6741 79.0521 56.9914 76.8851 55.626 75.1244C54.2606 73.4991 52.0759 72.5511 49.8912 72.5511C45.1122 72.5511 41.2891 68.7588 41.2891 64.1539V59.4136H42.3814C49.6181 59.4136 55.8991 54.8087 58.2203 48.1722H72.5572V63.7476C72.5572 67.4044 75.288 70.6549 78.8381 71.1967C79.2478 71.3321 79.7939 71.3321 80.2036 71.3321C84.2998 71.0612 87.4403 67.8107 87.4403 63.883V48.1722H101.777C103.962 54.6732 110.379 59.2781 117.616 59.2781Z" fill="#B6B6B6"/>
</svg>
