<svg width="100" height="100" viewBox="0 0 100 100" fill="none" xmlns="http://www.w3.org/2000/svg">
<path d="M94.7019 25.2595H96V30.9191C96 36.417 91.4568 40.9447 85.94 40.9447C81.5591 40.9447 77.6649 44.1787 77.0159 48.383C76.5291 50.9702 77.3404 53.5574 78.963 55.6596C80.5855 57.6 83.1817 58.7319 85.7778 58.7319C91.4568 58.7319 96 63.2596 96 68.9191V74.5787H94.7019C86.1023 74.5787 78.6385 80.0766 75.8801 88H58.843V69.4042C58.843 65.0383 55.5979 61.1574 51.3792 60.5106C50.7302 60.3489 50.0811 60.3489 49.5944 60.3489C44.8889 60.6723 41.157 64.5532 41.157 69.2426V88H24.1199C21.3616 80.0766 13.8977 74.5787 5.29806 74.5787H4V68.9191C4 63.4213 8.54321 58.8936 14.06 58.8936C18.4409 58.8936 22.3351 55.6596 22.9841 51.4553C23.4709 48.8681 22.6596 46.2809 21.037 44.1787C19.4145 42.2383 16.8183 41.1064 14.2222 41.1064C8.54322 41.1064 4 36.5787 4 31.0808V25.4213H5.29806C13.8977 25.4213 21.3616 19.9234 24.1199 12H41.157V30.5958C41.157 34.9617 44.4021 38.8426 48.6208 39.4894C49.1076 39.6511 49.7566 39.651 50.2434 39.651C55.1111 39.3276 58.843 35.4468 58.843 30.7574V12H75.8801C78.4762 19.7617 86.1023 25.2595 94.7019 25.2595Z" fill="#B6B6B6"/>
</svg>
