<svg width="160" height="160" viewBox="0 0 160 160" fill="none" xmlns="http://www.w3.org/2000/svg">
<path d="M107.012 115.27H43.0117C47.6569 114.237 50.9257 110.108 50.9257 105.463V47.6566C57.2913 54.0222 60.7321 62.4523 60.7321 71.3986V103.743C60.7321 104.603 61.4203 105.463 62.4526 105.463C63.3128 105.463 64.173 104.775 64.173 103.743V60.7319C70.5386 67.0975 73.9795 75.5276 73.9795 84.4738V103.743C73.9795 104.603 74.6676 105.463 75.6999 105.463C76.5601 105.463 77.4203 104.775 77.4203 103.743V73.8072L86.0225 82.4093C86.3666 82.7534 86.5386 83.0975 86.7106 83.4416V83.6136C87.0547 84.1297 87.0547 84.6459 87.2268 85.334C88.087 96.5168 97.3773 105.463 108.904 105.463H116.99L107.012 115.27Z" fill="#B6B6B6"/>
</svg>
