<svg width="100" height="100" viewBox="0 0 100 100" fill="none" xmlns="http://www.w3.org/2000/svg">
<path d="M83.5907 92H4C9.77674 90.7176 13.8418 85.5878 13.8418 79.8168V8C21.7581 15.9084 26.0372 26.3817 26.0372 37.4962V77.6794C26.0372 78.7481 26.893 79.8168 28.1767 79.8168C29.2465 79.8168 30.3163 78.9618 30.3163 77.6794V24.2443C38.2325 32.1527 42.5116 42.626 42.5116 53.7405V77.6794C42.5116 78.7481 43.3674 79.8168 44.6512 79.8168C45.7209 79.8168 46.7907 78.9618 46.7907 77.6794V40.4886L57.4884 51.1756C57.9163 51.6031 58.1302 52.0305 58.3442 52.458V52.6718C58.7721 53.313 58.7721 53.9542 58.986 54.8092C60.0558 68.7023 71.6093 79.8168 85.9442 79.8168H96L83.5907 92Z" fill="#B6B6B6"/>
</svg>
